<svg width="126" height="126" viewBox="0 0 126 126" fill="none" xmlns="http://www.w3.org/2000/svg">
<path d="M0 63C0 11.1195 11.1195 0 63 0C114.881 0 126 11.1195 126 63C126 114.881 114.881 126 63 126C11.1195 126 0 114.881 0 63Z" fill="white"/>
<path fill-rule="evenodd" clip-rule="evenodd" d="M64.7976 71.7407C66.0493 71.1171 66.7793 70.812 67.978 70.0993C69.1719 69.3894 70.234 68.8531 71.403 68.1061C73.2379 66.9336 78.2818 64.9991 78.2818 61.5989C78.2818 56.0882 64.7976 49.6396 56.3858 45.3663C52.0131 43.6671 50.6097 44.5167 49.9892 48.7364C48.7927 56.8783 48.8665 65.176 50.1813 73.3322C50.6836 76.4049 51.9688 77.2261 54.9085 76.15C58.8676 74.6632 61.0184 73.6238 64.7976 71.7407Z" fill="#EC6656"/>
<path fill-rule="evenodd" clip-rule="evenodd" d="M43.0841 34.9467C61.3029 39.0159 77.8627 48.2109 90.6899 61.3465C95.9038 66.7578 98.7773 72.5546 97.6812 75.7671C100.007 73.6397 102.229 71.3981 104.361 69.0423C110.108 62.8028 110.108 59.8901 104.361 53.6507C88.1127 35.8462 66.0427 23.7814 41.7955 19.4124C35.3819 18.2987 31.7233 20.7974 29.9014 25.7232C28.198 30.2779 26.8353 34.9039 25.8281 39.6584C26.865 35.1752 33.7526 32.9335 43.0841 34.9467Z" fill="url(#paint0_linear_3835_21066)"/>
<path fill-rule="evenodd" clip-rule="evenodd" d="M43.0841 34.9467C61.3029 39.0159 77.8627 48.2109 90.6899 61.3465C95.9038 66.7578 98.7773 72.5546 97.6812 75.7671C100.007 73.6397 102.229 71.3981 104.361 69.0423C110.108 62.8028 110.108 59.8901 104.361 53.6507C88.1127 35.8462 66.0427 23.7814 41.7955 19.4124C35.3819 18.2987 31.7233 20.7974 29.9014 25.7232C28.198 30.2779 26.8353 34.9039 25.8281 39.6584C26.865 35.1752 33.7526 32.9335 43.0841 34.9467Z" fill="url(#paint1_linear_3835_21066)"/>
<path fill-rule="evenodd" clip-rule="evenodd" d="M43.0841 34.9467C61.3029 39.0159 77.8627 48.2109 90.6899 61.3465C95.9038 66.7578 98.7773 72.5546 97.6812 75.7671C100.007 73.6397 102.229 71.3981 104.361 69.0423C110.108 62.8028 110.108 59.8901 104.361 53.6507C88.1127 35.8462 66.0427 23.7814 41.7955 19.4124C35.3819 18.2987 31.7233 20.7974 29.9014 25.7232C28.198 30.2779 26.8353 34.9039 25.8281 39.6584C26.865 35.1752 33.7526 32.9335 43.0841 34.9467Z" fill="url(#paint2_linear_3835_21066)"/>
<path fill-rule="evenodd" clip-rule="evenodd" d="M91.3267 61.8754C77.5388 73.8629 54.1306 85.1929 35.744 87.7772C35.8244 97.1183 40.9986 102.154 47.5265 100.771C67.1189 96.2717 91.2859 83.1505 105.647 69.3932C109.466 65.7282 110.377 61.251 106.583 56.1566C104.361 53.1979 101.633 50.618 98.8503 48.0255C100.587 51.8647 97.75 56.5747 91.3267 61.8754Z" fill="url(#paint3_linear_3835_21066)"/>
<path fill-rule="evenodd" clip-rule="evenodd" d="M91.3267 61.8754C77.5388 73.8629 54.1306 85.1929 35.744 87.7772C35.8244 97.1183 40.9986 102.154 47.5265 100.771C67.1189 96.2717 91.2859 83.1505 105.647 69.3932C109.466 65.7282 110.377 61.251 106.583 56.1566C104.361 53.1979 101.633 50.618 98.8503 48.0255C100.587 51.8647 97.75 56.5747 91.3267 61.8754Z" fill="#F4BB1B"/>
<path fill-rule="evenodd" clip-rule="evenodd" d="M91.3267 61.8754C77.5388 73.8629 54.1306 85.1929 35.744 87.7772C35.8244 97.1183 40.9986 102.154 47.5265 100.771C67.1189 96.2717 91.2859 83.1505 105.647 69.3932C109.466 65.7282 110.377 61.251 106.583 56.1566C104.361 53.1979 101.633 50.618 98.8503 48.0255C100.587 51.8647 97.75 56.5747 91.3267 61.8754Z" fill="url(#paint4_linear_3835_21066)"/>
<path fill-rule="evenodd" clip-rule="evenodd" d="M46.0645 91.2688C44.6888 86.7971 43.6563 82.1646 42.8595 77.5072C41.0422 66.9238 40.5914 52.6216 42.8304 41.4267C29.6322 40.0126 28.0353 42.4873 26.6861 48.4972C25.3899 54.2714 25.6431 83.2608 33.185 97.8731C36.0132 103.412 38.8222 103.517 43.1541 102.505C46.837 101.644 50.608 100.937 55.0859 98.6979C50.1366 99.4049 47.264 95.2082 46.0645 91.2688Z" fill="url(#paint5_linear_3835_21066)"/>
<path fill-rule="evenodd" clip-rule="evenodd" d="M46.0645 91.2688C44.6888 86.7971 43.6563 82.1646 42.8595 77.5072C41.0422 66.9238 40.5914 52.6216 42.8304 41.4267C29.6322 40.0126 28.0353 42.4873 26.6861 48.4972C25.3899 54.2714 25.6431 83.2608 33.185 97.8731C36.0132 103.412 38.8222 103.517 43.1541 102.505C46.837 101.644 50.608 100.937 55.0859 98.6979C50.1366 99.4049 47.264 95.2082 46.0645 91.2688Z" fill="#F4BB1B"/>
<defs>
<linearGradient id="paint0_linear_3835_21066" x1="-152.159" y1="107.963" x2="126.79" y2="25.2811" gradientUnits="userSpaceOnUse">
<stop stop-color="#00589F"/>
<stop offset="0.5054" stop-color="#38AAA0"/>
<stop offset="1" stop-color="#CCF86F"/>
</linearGradient>
<linearGradient id="paint1_linear_3835_21066" x1="67.2499" y1="19.1504" x2="67.2499" y2="75.7671" gradientUnits="userSpaceOnUse">
<stop stop-color="#F4BB1B"/>
<stop offset="0.4875" stop-color="#F4BB1B"/>
<stop offset="0.669792" stop-color="#F4BB1B"/>
<stop offset="1" stop-color="#F4BB1B"/>
</linearGradient>
<linearGradient id="paint2_linear_3835_21066" x1="82.7894" y1="78.8159" x2="82.6836" y2="21.0317" gradientUnits="userSpaceOnUse">
<stop stop-color="#2D61AD"/>
<stop offset="0.1292" stop-color="#2C68B2"/>
<stop offset="0.3576" stop-color="#2A7ABF"/>
<stop offset="0.6584" stop-color="#2698D2"/>
<stop offset="1" stop-color="#29BBE7"/>
</linearGradient>
<linearGradient id="paint3_linear_3835_21066" x1="4.5298" y1="62.6708" x2="183.698" y2="103.427" gradientUnits="userSpaceOnUse">
<stop stop-color="#1837D8"/>
<stop offset="0.5074" stop-color="#00C1FF"/>
<stop offset="1" stop-color="#70E6FF"/>
</linearGradient>
<linearGradient id="paint4_linear_3835_21066" x1="120.338" y1="65.9137" x2="41.5281" y2="105.615" gradientUnits="userSpaceOnUse">
<stop stop-color="#E94531"/>
<stop offset="1" stop-color="#F09185"/>
</linearGradient>
<linearGradient id="paint5_linear_3835_21066" x1="30.0919" y1="-30.1737" x2="73.7395" y2="186.493" gradientUnits="userSpaceOnUse">
<stop stop-color="#DD4874"/>
<stop offset="0.5269" stop-color="#F28859"/>
<stop offset="1" stop-color="#FAE65B"/>
</linearGradient>
</defs>
</svg>
