<svg width="181" height="154" viewBox="0 0 181 154" fill="none" xmlns="http://www.w3.org/2000/svg">
<path fill-rule="evenodd" clip-rule="evenodd" d="M92.8151 92.148C95.0153 91.0552 96.2987 90.5207 98.406 89.2717C100.505 88.0279 102.372 87.0881 104.427 85.7792C107.652 83.7248 116.519 80.3351 116.519 74.3773C116.519 64.7214 92.8151 53.422 78.0276 45.9343C70.3406 42.9569 67.8735 44.4456 66.7828 51.8394C64.6793 66.1058 64.8091 80.6452 67.1204 94.9365C68.0034 100.32 70.2627 101.76 75.4306 99.8739C82.3905 97.2687 86.1715 95.4474 92.8151 92.148Z" fill="#f45a4a"/>
<path fill-rule="evenodd" clip-rule="evenodd" d="M54.6441 27.6786C86.6716 34.8087 115.783 50.9202 138.332 73.9366C147.498 83.4184 152.549 93.5757 150.623 99.2047C154.711 95.477 158.616 91.5492 162.366 87.4213C172.469 76.4885 172.469 71.3848 162.366 60.452C133.802 29.2547 95.004 8.11459 52.3788 0.459122C41.104 -1.49227 34.6725 2.88586 31.4697 11.517C28.4753 19.4977 26.0797 27.6035 24.3091 35.9345C26.1318 28.0789 38.2398 24.1511 54.6441 27.6786Z" fill="#2a82c4"/>
<path fill-rule="evenodd" clip-rule="evenodd" d="M139.451 74.8638C115.213 95.8684 74.0628 115.721 41.7403 120.249C41.8816 136.617 50.9775 145.441 62.4533 143.017C96.8955 135.134 139.38 112.142 164.625 88.0366C171.339 81.6147 172.941 73.7696 166.27 64.8431C162.364 59.6589 157.57 55.1384 152.677 50.5958C155.731 57.3228 150.743 65.5759 139.451 74.8638Z" fill="#f45a4a"/>
<path fill-rule="evenodd" clip-rule="evenodd" d="M59.8834 126.367C57.465 118.531 55.6499 110.414 54.2492 102.253C51.0545 83.7088 50.262 58.6483 54.198 39.0324C30.9963 36.5547 28.1891 40.8908 25.8173 51.4215C23.5386 61.5392 23.9838 112.335 37.2419 137.939C42.2137 147.643 47.1518 147.829 54.767 146.054C61.2414 144.546 67.8705 143.307 75.7424 139.384C67.0418 140.623 61.9921 133.269 59.8834 126.367Z" fill="orange"/>
</svg>
